<?xml version="1.0" encoding="UTF-8" standalone="no"?>
<svg width="1440px" height="1024px" viewBox="0 0 1440 1024" version="1.1" xmlns="http://www.w3.org/2000/svg" xmlns:xlink="http://www.w3.org/1999/xlink" xmlns:sketch="http://www.bohemiancoding.com/sketch/ns">
    <!-- Generator: Sketch 3.3.3 (12081) - http://www.bohemiancoding.com/sketch -->
    <title>Desktop HD</title>
    <desc>Created with Sketch.</desc>
    <defs>
        <ellipse id="path-1" cx="720" cy="511.999707" rx="599.200232" ry="597.665977"></ellipse>
        <path id="path-2" d="M1352.09444,140.442388 L735,501.999707"></path>
    </defs>
    <g id="Welcome" stroke="none" stroke-width="1" fill="none" fill-rule="evenodd" sketch:type="MSPage">
        <g id="Desktop-HD" sketch:type="MSArtboardGroup">
            <ellipse id="Oval-1" stroke="#C2C2C2" stroke-width="0.5" opacity="0.641382929" sketch:type="MSShapeGroup" cx="720" cy="511.999707" rx="365.04178" ry="364.107088"></ellipse>
            <ellipse id="Oval-2" stroke="#C2C2C2" stroke-width="0.5" opacity="0.65520056" sketch:type="MSShapeGroup" cx="720" cy="511.999707" rx="421.280709" ry="420.202018"></ellipse>
            <ellipse id="Oval-3" stroke="#C2C2C2" stroke-linecap="round" stroke-linejoin="bevel" stroke-dasharray="2,19" opacity="0.472481343" sketch:type="MSShapeGroup" cx="720" cy="511.999707" rx="585.907394" ry="584.407176"></ellipse>
            <ellipse id="Oval-3-Copy" stroke="#C2C2C2" stroke-linecap="round" stroke-linejoin="bevel" stroke-dasharray="2,19" opacity="0.472481343" sketch:type="MSShapeGroup" cx="720" cy="511.999707" rx="585.907394" ry="584.407176"></ellipse>
            <ellipse id="Oval-3-Copy-2" stroke="#C2C2C2" stroke-linecap="round" stroke-linejoin="bevel" stroke-dasharray="2,19" sketch:type="MSShapeGroup" cx="720.511263" cy="512.509661" rx="478.030902" ry="476.806902"></ellipse>
            <g id="Oval-4" opacity="0.331798041">
                <use stroke="#C2C2C2" stroke-width="1" sketch:type="MSShapeGroup" xlink:href="#path-1"></use>
                <use stroke="none" xlink:href="#path-1"></use>
            </g>
            <ellipse id="Oval-5" stroke="#696969" stroke-width="0.5" opacity="0.268248601" sketch:type="MSShapeGroup" cx="720" cy="511.999707" rx="714.745669" ry="712.91556"></ellipse>
            <ellipse id="Oval-6" stroke="#C2C2C2" stroke-width="0.5" opacity="0.596023787" sketch:type="MSShapeGroup" cx="720" cy="511.999707" rx="245.406238" ry="244.777875"></ellipse>
            <path d="M707.218425,530.868001 L708.752214,532.397863" id="Line" stroke="#B0B0B0" stroke-linecap="square" sketch:type="MSShapeGroup"></path>
            <path d="M731,520 L1337.6057,874.06698" id="Line" stroke="#B0B0B0" stroke-width="0.5" stroke-linecap="square" stroke-dasharray="3,20" sketch:type="MSShapeGroup"></path>
            <path d="M720,534 L714.495158,1234.02347" id="Line-Copy-4" stroke="#B0B0B0" stroke-width="0.5" stroke-linecap="round" stroke-linejoin="round" stroke-dasharray="3,15" sketch:type="MSShapeGroup"></path>
            <path d="M725.374402,-201.830028 L720,502.999989" id="Line-Copy-5" stroke="#B0B0B0" stroke-width="0.5" stroke-linecap="square" stroke-dasharray="3,20" sketch:type="MSShapeGroup"></path>
            <path d="M102.905563,152.442388 L706.000013,505" id="Line-Copy-2" stroke="#B0B0B0" stroke-width="0.5" stroke-linecap="square" stroke-dasharray="3,20" opacity="0.737581623" sketch:type="MSShapeGroup"></path>
            <path d="M709.488737,519.509661 L92.3943001,881.06698" id="Line-Copy" stroke="#B0B0B0" stroke-width="0.5" stroke-linecap="square" stroke-dasharray="3,20" sketch:type="MSShapeGroup"></path>
            <path d="M-54776.2112,518 L102.3943,874.06698" id="Line-Copy-6" stroke="#B0B0B0" stroke-width="0.5" stroke-linecap="square" stroke-dasharray="3,20" sketch:type="MSShapeGroup"></path>
            <g id="Line-Copy-3" opacity="0.362814832">
                <use stroke="#B0B0B0" stroke-width="0.5" stroke-linecap="square" stroke-dasharray="3,20" sketch:type="MSShapeGroup" xlink:href="#path-2"></use>
                <use stroke="none" xlink:href="#path-2"></use>
                <use stroke="#A39B9B" stroke-width="1" stroke-linecap="square" stroke-dasharray="3,20" xlink:href="#path-2"></use>
            </g>
            <path d="M707.985192,253.221832 L736.646557,253.221832 L939.493257,659.369552 L924.772045,681.607623 L518.610088,681.607623 L504.596847,659.369552 L707.985192,253.221832 Z" id="Path-8-Copy" stroke="#C2C2C2" opacity="0.343691698" sketch:type="MSShapeGroup"></path>
            <path d="M1217.98519,83.2218323 L1246.64656,83.2218323 L1449.49326,489.369552 L1434.77205,511.607623 L1028.61009,511.607623 L1014.59685,489.369552 L1217.98519,83.2218323 Z" id="Path-8-Copy-5" stroke="#C2C2C2" opacity="0.343691698" sketch:type="MSShapeGroup"></path>
            <path d="M197.985192,84.2218323 L226.646557,84.2218323 L429.493257,490.369552 L414.772045,512.607623 L8.61008779,512.607623 L-5.40315319,490.369552 L197.985192,84.2218323 Z" id="Path-8-Copy-6" stroke="#C2C2C2" opacity="0.343691698" sketch:type="MSShapeGroup"></path>
            <path d="M715.921797,393.130882 L728.404201,393.130882 L816.746629,570.013599 L810.335346,579.698573 L633.446428,579.698573 L627.343475,570.013599 L715.921797,393.130882 Z" id="Path-8-Copy-3" stroke="#C2C2C2" opacity="0.161380597" sketch:type="MSShapeGroup"></path>
            <path d="M689.602162,931.878534 L749.622206,931.878534 L1174.40547,81.3606194 L1143.57763,34.7916585 L293.029903,34.7916585 L263.684638,81.3606194 L689.602162,931.878534 Z" id="Path-8-Copy-2" stroke="#C2C2C2" stroke-dasharray="2" opacity="0.659048507" sketch:type="MSShapeGroup"></path>
            <polygon id="Polygon-2" stroke="#F0F0F0" sketch:type="MSShapeGroup" points="720 -85.6662702 1319.20023 511.999707 720 1109.66568 120.799768 511.999707 "></polygon>
            <polygon id="Polygon-2-Copy" stroke="#F0F0F0" sketch:type="MSShapeGroup" points="720 -85.6662702 1319.20023 511.999707 720 1109.66568 120.799768 511.999707 "></polygon>
            <g id="Oval-7-+-Oval-8-+-Oval-13" sketch:type="MSLayerGroup" transform="translate(677.000000, 469.000000)">
                <ellipse id="Oval-7" stroke="#C2C2C2" opacity="0.191989272" sketch:type="MSShapeGroup" cx="43" cy="42.9997069" rx="42.9460917" ry="42.8361281"></ellipse>
                <ellipse id="Oval-8" stroke="#C2C2C2" opacity="0.170417444" sketch:type="MSShapeGroup" cx="43" cy="42.9997069" rx="33.7433578" ry="33.6569578"></ellipse>
                <path d="M43,72.5770335 C58.8123143,72.5770335 71.6307278,59.3348133 71.6307278,42.9997069 C71.6307278,26.6646006 58.8123143,13.4223804 43,13.4223804 C27.1876857,13.4223804 14.3692722,26.6646006 14.3692722,42.9997069 C14.3692722,59.3348133 27.1876857,72.5770335 43,72.5770335 Z" id="Oval-13" stroke="#979797" opacity="0.120452425" sketch:type="MSShapeGroup"></path>
            </g>
            <g id="Oval-7-+-Oval-8-+-Oval-13-Copy" sketch:type="MSLayerGroup" transform="translate(701.000000, 493.000000)">
                <ellipse id="Oval-7" stroke="#FFFFFF" sketch:type="MSShapeGroup" cx="19" cy="18.9998705" rx="18.9761801" ry="18.9275915"></ellipse>
                <ellipse id="Oval-8" stroke="#C2C2C2" opacity="0.2" sketch:type="MSShapeGroup" cx="19" cy="18.9998705" rx="14.9098558" ry="14.871679"></ellipse>
            </g>
            <g id="Oval-12-+-Oval-11" sketch:type="MSLayerGroup" transform="translate(1123.942819, 263.162109)">
                <ellipse id="Oval-12" fill="#D8D8D8" sketch:type="MSShapeGroup" cx="9.20273394" cy="9.1791703" rx="6.13515596" ry="6.11944686"></ellipse>
                <ellipse id="Oval-11" stroke="#C2C2C2" sketch:type="MSShapeGroup" cx="9.20273394" cy="9.1791703" rx="9.20273394" ry="9.1791703"></ellipse>
            </g>
            <path d="M719.041228,501.787449 L720.995708,501.787449 L734.828262,529.483538 L733.824391,531 L706.127331,531 L705.171738,529.483538 L719.041228,501.787449 Z" id="Path-8-Copy-4" opacity="0.248367537" fill="#D8D8D8" sketch:type="MSShapeGroup" transform="translate(720.000000, 516.393724) scale(1, -1) translate(-720.000000, -516.393724) "></path>
            <g id="Oval-12-+-Oval-11-Copy" sketch:type="MSLayerGroup" transform="translate(1122.875241, 747.598411)">
                <ellipse id="Oval-12" fill="#D8D8D8" sketch:type="MSShapeGroup" cx="9.20273394" cy="9.1791703" rx="6.13515596" ry="6.11944686"></ellipse>
                <ellipse id="Oval-11" stroke="#C2C2C2" sketch:type="MSShapeGroup" cx="9.20273394" cy="9.1791703" rx="9.20273394" ry="9.1791703"></ellipse>
            </g>
            <g id="Oval-12-+-Oval-11-Copy-2" sketch:type="MSLayerGroup" transform="translate(298.719291, 747.598411)">
                <ellipse id="Oval-12" fill="#D8D8D8" sketch:type="MSShapeGroup" cx="9.20273394" cy="9.1791703" rx="6.13515596" ry="6.11944686"></ellipse>
                <ellipse id="Oval-11" stroke="#C2C2C2" sketch:type="MSShapeGroup" cx="9.20273394" cy="9.1791703" rx="9.20273394" ry="9.1791703"></ellipse>
            </g>
            <g id="Oval-12-+-Oval-11-Copy-3" sketch:type="MSLayerGroup" transform="translate(298.719291, 747.598411)">
                <ellipse id="Oval-12" fill="#D8D8D8" sketch:type="MSShapeGroup" cx="9.20273394" cy="9.1791703" rx="6.13515596" ry="6.11944686"></ellipse>
                <ellipse id="Oval-11" stroke="#C2C2C2" sketch:type="MSShapeGroup" cx="9.20273394" cy="9.1791703" rx="9.20273394" ry="9.1791703"></ellipse>
            </g>
            <g id="Oval-12-+-Oval-11-Copy-4" sketch:type="MSLayerGroup" transform="translate(298.719291, 264.162109)">
                <ellipse id="Oval-12" fill="#D8D8D8" sketch:type="MSShapeGroup" cx="9.20273394" cy="9.1791703" rx="6.13515596" ry="6.11944686"></ellipse>
                <ellipse id="Oval-11" stroke="#C2C2C2" sketch:type="MSShapeGroup" cx="9.20273394" cy="9.1791703" rx="9.20273394" ry="9.1791703"></ellipse>
            </g>
            <g id="Oval-12-+-Oval-11-Copy-5" sketch:type="MSLayerGroup" transform="translate(1283.411822, 321.276946)">
                <ellipse id="Oval-12" fill="#D8D8D8" sketch:type="MSShapeGroup" cx="6.13515596" cy="6.11944686" rx="4.09010397" ry="4.07963124"></ellipse>
                <ellipse id="Oval-11" stroke="#C2C2C2" sketch:type="MSShapeGroup" cx="6.13515596" cy="6.11944686" rx="6.13515596" ry="6.11944686"></ellipse>
            </g>
            <g id="Oval-12-+-Oval-11-Copy-6" sketch:type="MSLayerGroup" transform="translate(1282.276666, 693.543297)">
                <ellipse id="Oval-12" fill="#D8D8D8" sketch:type="MSShapeGroup" cx="6.13515596" cy="6.11944686" rx="4.09010397" ry="4.07963124"></ellipse>
                <ellipse id="Oval-11" stroke="#C2C2C2" sketch:type="MSShapeGroup" cx="6.13515596" cy="6.11944686" rx="6.13515596" ry="6.11944686"></ellipse>
            </g>
            <g id="Oval-12-+-Oval-11-Copy-7" sketch:type="MSLayerGroup" transform="translate(142.340392, 687.423850)">
                <ellipse id="Oval-12" fill="#D8D8D8" sketch:type="MSShapeGroup" cx="6.13515596" cy="6.11944686" rx="4.09010397" ry="4.07963124"></ellipse>
                <ellipse id="Oval-11" stroke="#C2C2C2" sketch:type="MSShapeGroup" cx="6.13515596" cy="6.11944686" rx="6.13515596" ry="6.11944686"></ellipse>
            </g>
            <g id="Oval-12-+-Oval-11-Copy-8" sketch:type="MSLayerGroup" transform="translate(143.340392, 321.276946)">
                <ellipse id="Oval-12" fill="#D8D8D8" sketch:type="MSShapeGroup" cx="6.13515596" cy="6.11944686" rx="4.09010397" ry="4.07963124"></ellipse>
                <ellipse id="Oval-11" stroke="#C2C2C2" sketch:type="MSShapeGroup" cx="6.13515596" cy="6.11944686" rx="6.13515596" ry="6.11944686"></ellipse>
            </g>
        </g>
    </g>
</svg>